<svg width="135" height="135" viewBox="0 0 135 135" fill="none" xmlns="http://www.w3.org/2000/svg">
<path d="M67.5 134.5C104.503 134.5 134.5 104.503 134.5 67.5C134.5 30.4969 104.503 0.5 67.5 0.5C30.4969 0.5 0.5 30.4969 0.5 67.5C0.5 104.503 30.4969 134.5 67.5 134.5Z" fill="#1D1D1B"/>
<path d="M42.5135 56.6055C39.0457 56.6055 36.3822 57.8637 34.7234 60.3268H34.6232V45.1536L29.3965 46.4305V85.2087H34.6232V70.1294C34.6232 64.7023 37.3869 61.3847 41.9626 61.3847C46.5384 61.3847 48.8983 64.0982 48.8983 70.0793V85.2087H54.125V68.4706C54.125 60.8307 49.1486 56.6086 42.5135 56.6086V56.6055Z" fill="white"/>
<path d="M69.131 49.3599L63.9042 50.5774V57.3596H60.6523V62.1357H63.9042V85.2054H69.131V62.1357H74.051V57.3596H69.131V49.3599Z" fill="white"/>
<path d="M102.479 57.1124V59.9981C99.9068 57.8166 96.5829 56.4958 92.9461 56.4958C91.3311 56.4958 89.7788 56.765 88.3234 57.2439C83.829 58.6022 80.3424 62.045 78.8933 66.7428C78.8777 66.796 78.8558 66.8492 78.837 66.9024C78.7744 67.109 78.7274 67.325 78.6742 67.5409C78.596 67.8476 78.5146 68.1543 78.4552 68.4673C78.4301 68.5988 78.4145 68.7365 78.3926 68.8711C78.3362 69.2091 78.283 69.5471 78.2517 69.8914C78.1891 70.4923 78.1484 71.1026 78.1484 71.7317C78.1484 77.4279 81.4848 82.1539 86.3203 84.4324C88.314 85.4371 90.5581 86.013 92.943 86.013C96.5798 86.013 99.9037 84.6922 102.476 82.5107V85.1992H107.703V58.283L102.476 57.103L102.479 57.1124ZM92.846 81.2619C87.5503 81.2619 83.225 76.6298 83.225 71.3342C83.225 66.0386 87.5535 61.2531 92.846 61.2531C98.7018 61.2531 102.674 65.8352 102.674 71.3342C102.674 76.8333 98.345 81.2619 92.846 81.2619Z" fill="white"/>
<g clip-path="url(#clip0_1344_12229)">
<path d="M67 134.5C104.003 134.5 134 104.503 134 67.5C134 30.4969 104.003 0.5 67 0.5C29.9969 0.5 0 30.4969 0 67.5C0 104.503 29.9969 134.5 67 134.5Z" fill="#1D1D1B"/>
<path d="M49.8883 90.2812H43.3096V71.2385C43.3096 63.7104 40.3984 60.295 34.5801 60.295C28.7617 60.295 25.3423 64.4707 25.3423 71.3015V90.2812H18.7637V41.473L25.3423 39.8657V58.9636H25.4684C27.5562 55.8633 30.9086 54.2797 35.2734 54.2797C43.6247 54.2797 49.8883 59.5939 49.8883 69.2097V90.2772V90.2812ZM74.962 55.233H68.7694V45.1641L62.1908 46.6965V55.233H58.0978V61.2444H62.1908V90.2851H68.7694V61.2444H74.962V55.233ZM117.322 56.4069V90.2851H110.743V86.9012C107.505 89.6469 103.321 91.3093 98.7437 91.3093C95.742 91.3093 92.9175 90.5806 90.4081 89.32C84.3219 86.4522 80.1226 80.5038 80.1226 73.3342C80.1226 72.5424 80.1738 71.7742 80.2526 71.0179C80.292 70.5846 80.3589 70.1591 80.4298 69.7337C80.4574 69.5643 80.4771 69.3909 80.5086 69.2255C80.5835 68.8316 80.6819 68.4455 80.7844 68.0595C80.8513 67.7916 80.9144 67.5198 80.9892 67.2558C81.0089 67.1889 81.0365 67.1219 81.0601 67.0549C82.888 61.1381 87.2724 56.8048 92.9293 55.0991C94.7611 54.4964 96.711 54.1576 98.7477 54.1576C103.325 54.1576 107.509 55.82 110.747 58.5657V54.9336L117.326 56.4188L117.322 56.4069ZM110.987 72.8221C110.987 65.9007 105.988 60.1335 98.6177 60.1335C91.9523 60.1335 86.5082 65.8377 86.5082 72.8221C86.5082 79.8065 91.9563 85.3176 98.6177 85.3176C105.279 85.3176 110.987 79.5505 110.987 72.8221Z" fill="white"/>
</g>
<defs>
<clipPath id="clip0_1344_12229">
<rect width="134" height="134" fill="white" transform="translate(0 0.5)"/>
</clipPath>
</defs>
</svg>