<?xml version="1.0" encoding="UTF-8"?>
<svg id="Layer_1" xmlns="http://www.w3.org/2000/svg" viewBox="22 85 195 68">
  <defs>
    <style>
      .cls-1 {
        fill: #001f36;
      }

      .cls-2 {
        fill: #b3995d;
      }
    </style>
  </defs>
  <g>
    <path class="cls-1" d="M78.73,110.65v-19.36c0-.26.14-.4.4-.4h1.87c.23,0,.37.09.46.29l7.38,17.52,7.38-17.52c.09-.2.23-.29.46-.29h1.87c.26,0,.4.14.4.4v19.36c0,.26-.14.4-.4.4h-1.35c-.26,0-.4-.14-.4-.4v-16.11l-6.74,16.19c-.09.23-.26.32-.49.32h-1.44c-.23,0-.4-.09-.49-.32l-6.74-16.19v16.11c0,.26-.14.4-.4.4h-1.35c-.26,0-.4-.14-.4-.4Z"/>
    <path class="cls-1" d="M139.13,110.65v-17.83h-4.29c-.26,0-.4-.14-.4-.4v-1.12c0-.26.14-.4.4-.4h10.78c.26,0,.4.14.4.4v1.12c0,.26-.14.4-.4.4h-4.32v17.83c0,.26-.14.4-.4.4h-1.35c-.26,0-.4-.14-.4-.4Z"/>
    <path class="cls-1" d="M167.57,110.77l-4.87-7.35h-3.23v7.23c0,.26-.14.4-.4.4h-1.35c-.26,0-.4-.14-.4-.4v-19.36c0-.26.14-.4.4-.4h5.5c4.35,0,6.63,2.62,6.63,6.28,0,3.11-1.67,5.5-4.93,6.11l4.9,7.26c.2.32.06.52-.29.52h-1.44c-.23,0-.4-.09-.52-.29ZM163.04,101.49c2.62,0,4.7-1.15,4.7-4.32s-2.07-4.35-4.7-4.35h-3.57v8.67h3.57Z"/>
    <path class="cls-1" d="M180.91,110.65v-19.36c0-.26.14-.4.4-.4h1.35c.26,0,.4.14.4.4v19.36c0,.26-.14.4-.4.4h-1.35c-.26,0-.4-.14-.4-.4Z"/>
    <path class="cls-1" d="M194.34,101.06c0-5.82,4.26-10.4,10.23-10.4,2.79,0,5.01,1.01,6.8,2.59.2.2.32.4.09.69l-.81.89c-.2.2-.37.2-.63,0-1.47-1.3-3.23-2.07-5.39-2.07-4.64,0-8.1,3.51-8.1,8.3s3.46,8.27,8.1,8.27c2.16,0,3.92-.78,5.39-2.07.26-.23.43-.2.61-.03l.84.92c.26.26.12.46-.09.66-1.79,1.61-4,2.62-6.8,2.62-5.96,0-10.23-4.55-10.23-10.37Z"/>
  </g>
  <g>
    <path class="cls-1" d="M27.9,147.53v-19.36c0-.26.14-.4.4-.4h1.87c.23,0,.37.09.46.29l7.38,17.52,7.38-17.52c.09-.2.23-.29.46-.29h1.87c.26,0,.4.14.4.4v19.36c0,.26-.14.4-.4.4h-1.35c-.26,0-.4-.14-.4-.4v-16.11l-6.74,16.19c-.09.23-.26.32-.49.32h-1.44c-.23,0-.4-.09-.49-.32l-6.74-16.19v16.11c0,.26-.14.4-.4.4h-1.35c-.26,0-.4-.14-.4-.4Z"/>
    <path class="cls-1" d="M58.91,147.44l6.97-19.33c.09-.23.29-.35.52-.35h1.58c.23,0,.43.12.52.35l7,19.33c.12.29,0,.49-.32.49h-1.44c-.23,0-.37-.09-.46-.35l-1.47-4.18h-9.22l-1.47,4.18c-.09.26-.23.35-.49.35h-1.41c-.32,0-.43-.2-.32-.49ZM71.13,141.48l-3.92-11.12-3.92,11.12h7.84Z"/>
    <path class="cls-1" d="M86.26,147.53v-19.36c0-.26.14-.4.4-.4h1.35c.26,0,.4.14.4.4v10.98l8.36-11.15c.14-.17.32-.23.52-.23h1.7c.37,0,.46.23.23.52l-6.94,8.87,7.75,10.26c.2.29.09.52-.26.52h-1.58c-.23,0-.37-.06-.52-.26l-6.68-8.87-2.56,3.31v5.42c0,.26-.14.4-.4.4h-1.35c-.26,0-.4-.14-.4-.4Z"/>
    <path class="cls-1" d="M143.16,147.65l-4.87-7.35h-3.23v7.23c0,.26-.14.4-.4.4h-1.35c-.26,0-.4-.14-.4-.4v-19.36c0-.26.14-.4.4-.4h5.5c4.35,0,6.63,2.62,6.63,6.28,0,3.11-1.67,5.5-4.93,6.11l4.9,7.26c.2.32.06.52-.29.52h-1.44c-.23,0-.4-.09-.52-.29ZM138.64,138.37c2.62,0,4.7-1.15,4.7-4.32s-2.07-4.35-4.7-4.35h-3.57v8.67h3.57Z"/>
  </g>
  <g>
    <g>
      <rect class="cls-2" x="110.83" y="90.89" width="13.24" height="1.93"/>
      <rect class="cls-2" x="110.83" y="109.12" width="13.24" height="1.93"/>
      <rect class="cls-2" x="110.83" y="100.01" width="8.53" height="1.93"/>
    </g>
    <g>
      <rect class="cls-2" x="110.83" y="127.77" width="13.24" height="1.93"/>
      <rect class="cls-2" x="110.83" y="146" width="13.24" height="1.93"/>
      <rect class="cls-2" x="110.83" y="136.88" width="8.53" height="1.93"/>
    </g>
    <polygon class="cls-2" points="119.37 118.44 119.37 120.38 116.06 120.38 116.06 123.69 114.15 123.69 114.15 120.38 110.84 120.38 110.84 118.44 114.15 118.44 114.15 115.13 116.06 115.13 116.06 118.44 119.37 118.44"/>
  </g>
</svg>