<?xml version="1.0" encoding="UTF-8"?>
<svg xmlns="http://www.w3.org/2000/svg" viewBox="0 0 237.69 237.69">
  <!-- Brand mark: "| ı | ı | + | ı | ı |" — rotated E-dashes flanking a plus -->
  <!-- Authentic paths from M+M Icon RGB.svg, navy fill on transparent background -->
  <g fill="#001F36">
    <rect x="15.16" y="111.52" width="40.16" height="5.86" transform="translate(-79.21 149.69) rotate(-90)"/>
    <rect x="70.49" y="111.52" width="40.16" height="5.86" transform="translate(-23.88 205.02) rotate(-90)"/>
    <rect x="49.96" y="118.66" width="25.89" height="5.86" transform="translate(-58.68 184.49) rotate(-90)"/>
    <rect x="127.04" y="111.52" width="40.16" height="5.86" transform="translate(32.67 261.57) rotate(-90)"/>
    <rect x="182.37" y="111.52" width="40.16" height="5.86" transform="translate(88 316.9) rotate(-90)"/>
    <rect x="161.84" y="118.66" width="25.89" height="5.86" transform="translate(53.2 296.37) rotate(-90)"/>
  </g>
  <polygon fill="#B3995D" points="131.79 118.66 131.79 124.51 121.77 124.51 121.77 134.53 115.92 134.53 115.92 124.51 105.9 124.51 105.9 118.66 115.92 118.66 115.92 108.64 121.77 108.64 121.77 118.66 131.79 118.66"/>
</svg>
