<?xml version="1.0" encoding="UTF-8"?>
<svg id="Layer_1" xmlns="http://www.w3.org/2000/svg" viewBox="0 0 237.69 237.69">
  <defs>
    <style>
      .cls-1 {
        fill: #001f36;
      }

      .cls-2 {
        fill: #fff;
      }
    </style>
  </defs>
  <rect class="cls-1" x="0" y="0" width="237.69" height="237.69" transform="translate(237.69 0) rotate(90)"/>
  <g>
    <rect class="cls-2" x="15.16" y="111.52" width="40.16" height="5.86" transform="translate(-79.21 149.69) rotate(-90)"/>
    <rect class="cls-2" x="70.49" y="111.52" width="40.16" height="5.86" transform="translate(-23.88 205.02) rotate(-90)"/>
    <rect class="cls-2" x="49.96" y="118.66" width="25.89" height="5.86" transform="translate(-58.68 184.49) rotate(-90)"/>
    <rect class="cls-2" x="127.04" y="111.52" width="40.16" height="5.86" transform="translate(32.67 261.57) rotate(-90)"/>
    <rect class="cls-2" x="182.37" y="111.52" width="40.16" height="5.86" transform="translate(88 316.9) rotate(-90)"/>
    <rect class="cls-2" x="161.84" y="118.66" width="25.89" height="5.86" transform="translate(53.2 296.37) rotate(-90)"/>
    <polygon class="cls-2" points="131.79 118.66 131.79 124.51 121.77 124.51 121.77 134.53 115.92 134.53 115.92 124.51 105.9 124.51 105.9 118.66 115.92 118.66 115.92 108.64 121.77 108.64 121.77 118.66 131.79 118.66"/>
  </g>
</svg>